<svg width="208" height="60" viewBox="0 0 208 60" fill="none" xmlns="http://www.w3.org/2000/svg">
<path d="M26.375 40.3438C27.1875 40.3438 27.5938 40.9062 27.5938 42.0312C27.5938 43.1354 26.2812 44.3438 23.6562 45.6562C21.0312 46.9688 18.4688 47.625 15.9688 47.625H15.25C13.1875 47.625 11.2292 47.2188 9.375 46.4062C5.75 44.8229 3.25 42.125 1.875 38.3125C1.20833 36.4375 0.875 34.5729 0.875 32.7188V31.9688C0.875 27.7604 2.26042 24.1146 5.03125 21.0312C6.42708 19.4896 8.11458 18.3125 10.0938 17.5C12.0938 16.6667 14.1458 16.25 16.25 16.25C20.2083 16.25 23.2604 16.8438 25.4062 18.0312C26.6771 18.7396 27.3125 19.8958 27.3125 21.5C27.3125 24.3958 26.3958 25.8438 24.5625 25.8438C23.4375 25.8438 22.1042 25.0208 20.5625 23.375C19.0417 21.7292 17.4271 20.9062 15.7188 20.9062C13.6562 20.9062 11.9583 22.1875 10.625 24.75C9.875 26.2083 9.48958 28.5104 9.46875 31.6562C9.46875 31.6979 9.46875 31.7396 9.46875 31.7812C9.46875 34.8021 10.25 37.2917 11.8125 39.25C13.3958 41.2292 15.4062 42.2188 17.8438 42.2188C19.1979 42.2188 20.8542 41.9062 22.8125 41.2812C24.7917 40.6562 25.9792 40.3438 26.375 40.3438ZM47.125 20.2188H46.5312C44.7396 20.2188 43.2708 21.2292 42.125 23.25C41 25.2708 40.4375 27.6875 40.4375 30.5V32.25C40.4375 35.4167 41.0938 38.0938 42.4062 40.2812C43.7188 42.4688 45.2917 43.5625 47.125 43.5625H47.7188C49.3229 43.5625 50.7188 42.75 51.9062 41.125C53.1146 39.4792 53.7188 37.2917 53.7188 34.5625L53.7812 33.9062L53.8125 32.5938V32.25L53.7812 31.9062V31.25C53.7396 30.7917 53.7188 30.4583 53.7188 30.25C53.7188 27.4792 53.0625 25.1146 51.75 23.1562C50.4375 21.1979 48.8958 20.2188 47.125 20.2188ZM47.1562 16.0625H48.7188C50.5729 16.0625 52.4792 16.5 54.4375 17.375C58.1667 19.0417 60.7292 21.75 62.125 25.5C62.8333 27.4375 63.1875 29.4167 63.1875 31.4375V32C63.1875 34.1667 62.75 36.2917 61.875 38.375C61 40.4583 59.8229 42.1875 58.3438 43.5625C55.2604 46.3542 51.7188 47.75 47.7188 47.75C47.4062 47.75 47.0938 47.7396 46.7812 47.7188C44.7812 47.7188 42.8125 47.3229 40.875 46.5312C38.9583 45.7188 37.3854 44.6458 36.1562 43.3125C33.5104 40.3958 32.1875 36.7396 32.1875 32.3438V31.8125L32.2188 31.2812C32.2396 29.3438 32.6042 27.4271 33.3125 25.5312C34.6875 21.9062 37.2083 19.2292 40.875 17.5C42.9375 16.5417 45.0312 16.0625 47.1562 16.0625ZM82.5312 19.7188C84.9479 18.0521 87.0104 17.2188 88.7188 17.2188C90.4271 17.2188 91.5833 17.5833 92.1875 18.3125C92.8125 19.0417 93.125 19.9167 93.125 20.9375C93.125 21.9583 92.8438 22.875 92.2812 23.6875C91.7396 24.4792 91.1146 24.875 90.4062 24.875C89.7188 24.875 88.7604 24.6042 87.5312 24.0625C86.3021 23.5208 85.3542 23.25 84.6875 23.25C84.0208 23.25 83.2708 23.6042 82.4375 24.3125C81.6042 25.0208 81.0208 26.0312 80.6875 27.3438C80.375 28.6562 80.2188 30.7188 80.2188 33.5312C80.2188 36.3229 80.4167 38.1354 80.8125 38.9688C81.2083 39.7812 82.0208 40.8542 83.25 42.1875C84.4792 43.5208 85.0938 44.6146 85.0938 45.4688C85.0938 46.4688 82.6771 46.9688 77.8438 46.9688H75.1562L74.5 46.9375C74.0625 46.9167 73.6146 46.9062 73.1562 46.9062L72.5 46.875C72.0625 46.8542 71.6042 46.8438 71.125 46.8438C68.9375 46.8438 67.8438 46.375 67.8438 45.4375C67.8438 44.5 68.3854 43.5521 69.4688 42.5938C70.5729 41.6354 71.2396 40.7708 71.4688 40C71.7188 39.2292 71.8438 36.5833 71.8438 32.0625C71.8438 27.5417 71.6979 24.8333 71.4062 23.9375C71.1354 23.0417 70.4583 22.2812 69.375 21.6562C68.3125 21.0104 67.7812 20.3438 67.7812 19.6562C67.7812 18.6979 68.5 18.0208 69.9375 17.625C72.1042 17.0417 74.0625 16.75 75.8125 16.75C77.5625 16.75 78.7396 16.9479 79.3438 17.3438C79.5938 17.5104 79.875 18.0417 80.1875 18.9375C80.5208 19.8333 80.9062 20.2812 81.3438 20.2812C81.5312 20.2812 81.9271 20.0938 82.5312 19.7188ZM131.25 44.625C131.25 46.3125 128.865 47.1562 124.094 47.1562C122.677 47.1562 121.708 46.9583 121.188 46.5625C120.667 46.1667 120.24 45.6458 119.906 45C119.573 44.3333 119.292 44 119.062 44C118.854 44 118.219 44.3438 117.156 45.0312C116.094 45.6979 114.958 46.2917 113.75 46.8125C112.562 47.3333 111 47.5938 109.062 47.5938C107.125 47.5938 105.479 47.1771 104.125 46.3438C102.792 45.5104 101.74 44.3021 100.969 42.7188C100.219 41.1354 99.8438 37.5625 99.8438 32C99.8438 26.4375 99.7188 23.3958 99.4688 22.875C99.2396 22.3542 98.5729 21.8438 97.4688 21.3438C96.3646 20.8438 95.8125 20.2292 95.8125 19.5C95.8125 18.5 96.4375 17.8333 97.6875 17.5C99.625 16.9792 102.031 16.7188 104.906 16.7188C106.281 16.7188 107.177 17.3125 107.594 18.5C108.01 19.6875 108.219 23 108.219 28.4375C108.219 33.875 108.396 37.3021 108.75 38.7188C109.229 40.6771 110.281 41.8438 111.906 42.2188C112.323 42.3229 112.75 42.375 113.188 42.375C113.938 42.375 114.708 42.2292 115.5 41.9375C116.792 41.4792 117.76 40.8021 118.406 39.9062C119.073 38.9896 119.406 36.6562 119.406 32.9062C119.406 29.1562 119.219 26.5104 118.844 24.9688C118.469 23.4271 117.938 22.1354 117.25 21.0938C116.562 20.0521 116.219 19.3125 116.219 18.875C116.219 17.4167 118.906 16.6875 124.281 16.6875H125.156C126.24 16.6875 126.969 16.9062 127.344 17.3438C127.74 17.7604 127.938 18.8438 127.938 20.5938L127.812 25.125L127.781 26.0625V30.6875C127.781 35.2708 127.906 38.1042 128.156 39.1875C128.406 40.2708 128.979 41.4062 129.875 42.5938C130.792 43.7812 131.25 44.4583 131.25 44.625ZM140.531 8.25V7.53125C140.594 7.21875 140.625 6.9375 140.625 6.6875C140.625 5.70833 141.094 4.75 142.031 3.8125C142.969 2.875 143.844 2.40625 144.656 2.40625H145.562C146.625 2.40625 147.562 2.89583 148.375 3.875C149.208 4.83333 149.625 5.58333 149.625 6.125L149.719 6.9375V7.28125C149.719 8.90625 149.219 10.1562 148.219 11.0312C147.24 11.9062 145.948 12.3438 144.344 12.3438L144.062 12.4062H143.531C142.76 12.4062 142.062 12.0417 141.438 11.3125C140.833 10.5625 140.531 9.54167 140.531 8.25ZM149.625 37.5312C149.625 42.0729 149.49 45.3646 149.219 47.4062C148.948 49.4479 148.344 51.3125 147.406 53C146.49 54.7083 145.01 56.1458 142.969 57.3125C140.948 58.5 138.896 59.0938 136.812 59.0938C134.729 59.0938 133.688 58.2604 133.688 56.5938C133.688 56.1562 133.948 55.5625 134.469 54.8125C134.99 54.0625 136.01 53.4583 137.531 53C139.052 52.5625 140.073 51.5938 140.594 50.0938C140.99 48.9479 141.188 44.7708 141.188 37.5625C141.188 30.3542 141.062 26.1667 140.812 25C140.583 23.8333 139.927 22.5312 138.844 21.0938C137.781 19.6354 137.25 18.8646 137.25 18.7812C137.25 18.1354 137.844 17.6146 139.031 17.2188C141.219 16.4896 143.604 16.125 146.188 16.125H146.75C148.125 16.125 148.906 16.7917 149.094 18.125C149.448 20.5417 149.625 25.4167 149.625 32.75V37.5312ZM173.781 34.2188C173.781 33.2812 173.49 32.8125 172.906 32.8125H172.094C171.573 32.9167 171.177 32.9688 170.906 32.9688C169.01 32.9688 167.417 33.5208 166.125 34.625C164.833 35.7292 164.188 36.9792 164.188 38.375V39.0938C164.188 40.1562 164.521 41.0729 165.188 41.8438C165.854 42.6146 166.667 43 167.625 43H168.625C170 43 171.177 42.5729 172.156 41.7188C173.135 40.8646 173.625 40.0312 173.625 39.2188C173.708 38.8021 173.75 38.5312 173.75 38.4062L173.812 37.9062V36.5625L173.844 36.0625V34.6875C173.802 34.4792 173.781 34.3229 173.781 34.2188ZM186.469 44.125V44.5938C186.469 45.3021 185.688 45.9688 184.125 46.5938C182.562 47.1979 180.708 47.5 178.562 47.5C177.25 47.5 176.115 46.9062 175.156 45.7188C174.635 45.0521 174.229 44.7188 173.938 44.7188C173.646 44.6979 173.146 44.9375 172.438 45.4375C170.062 47.0625 167.5 47.875 164.75 47.875C164.729 47.875 164.708 47.8854 164.688 47.9062C161.979 47.9062 159.812 47.2083 158.188 45.8125C156.562 44.4167 155.74 42.4583 155.719 39.9375C155.719 34.5208 159.885 31.1146 168.219 29.7188C170.219 29.4062 171.417 29.1667 171.812 29C173.021 28.5 173.625 27.3854 173.625 25.6562C173.625 23.9271 173.229 22.6875 172.438 21.9375C171.667 21.1667 170.76 20.7812 169.719 20.7812C168.073 20.7812 166.583 21.6667 165.25 23.4375C163.917 25.1875 162.365 26.0625 160.594 26.0625C159.552 26.0625 158.76 25.7812 158.219 25.2188C157.698 24.6354 157.438 24.0417 157.438 23.4375C157.438 21.6042 158.396 20.1458 160.312 19.0625C163.5 17.2708 166.875 16.375 170.438 16.375H172.062C173.854 16.375 175.562 16.7604 177.188 17.5312C178.833 18.2812 180.104 19.4375 181 21C181.896 22.5625 182.344 26.0521 182.344 31.4688C182.344 36.8854 182.51 40.0104 182.844 40.8438C183.198 41.6562 183.885 42.2604 184.906 42.6562C185.948 43.0312 186.469 43.5208 186.469 44.125ZM190.031 3.65625C190.031 2.90625 190.573 2.36458 191.656 2.03125C194.594 1.13542 197.406 0.6875 200.094 0.6875C201.677 0.6875 202.552 1.375 202.719 2.75C202.76 3.08333 202.781 8.66667 202.781 19.5C202.781 30.3333 202.958 36.7396 203.312 38.7188C203.688 40.6771 204.188 42.0104 204.812 42.7188C206.396 44.5104 207.188 45.4479 207.188 45.5312C207.188 46.5312 204.396 47.0312 198.812 47.0312H198.188L197.531 47C194.198 47 192.198 46.9167 191.531 46.75C190.885 46.5833 190.562 46.1979 190.562 45.5938C190.562 44.9688 191.073 44.0312 192.094 42.7812C193.115 41.5104 193.76 40.1771 194.031 38.7812C194.302 37.3646 194.438 32.1562 194.438 23.1562C194.438 14.1562 194.292 9.16667 194 8.1875C193.708 7.1875 192.969 6.3125 191.781 5.5625C190.615 4.79167 190.031 4.15625 190.031 3.65625Z" fill="white"/>
</svg>
