<svg width="64" height="64" viewBox="0 0 64 64" fill="none" xmlns="http://www.w3.org/2000/svg">
<path d="M39.5538 3.99576C39.6458 4.02422 39.7379 4.05269 39.8327 4.08202C41.9505 4.75692 44.0005 5.80306 45.7656 7.1547C45.8643 7.22975 45.9631 7.30479 46.0648 7.38211C46.7463 7.91416 47.3936 8.48183 48.0245 9.07264C48.0802 9.1245 48.136 9.17637 48.1935 9.2298C52.0502 12.8458 54.5273 18.2452 54.7273 23.5276C54.7867 26.4289 54.6174 29.7157 53.312 32.3659C52.9339 33.2807 53.0383 34.3378 53.0363 35.3102C53.0338 35.7217 53.03 36.1332 53.0248 36.5446C53.0236 36.6448 53.0223 36.745 53.021 36.8482C53.0034 37.7917 52.9011 38.7128 52.7681 39.6467C52.7488 39.7891 52.7296 39.9314 52.7098 40.078C52.0542 44.6318 49.5547 49.0689 46.3805 52.34C46.2229 52.5025 46.0673 52.6668 45.9117 52.8312C43.3624 55.4672 40.0619 57.3026 36.6173 58.4876C36.4926 58.5308 36.4926 58.5308 36.3654 58.5748C32.2562 59.9771 27.4362 60.0774 23.2575 58.9327C22.1628 58.644 21.3578 58.7769 20.2901 59.087C19.4315 59.3245 18.5714 59.4994 17.6924 59.644C17.5811 59.6624 17.4697 59.6807 17.3549 59.6997C16.1976 59.8836 15.0598 59.9786 13.8877 59.9895C13.7692 59.9928 13.6507 59.9961 13.5286 59.9994C13.0273 60.0036 12.647 59.9898 12.1803 59.7978C11.7513 59.3725 11.4963 58.8939 11.2194 58.3607C11.1606 58.2496 11.1018 58.1385 11.0411 58.024C9.02836 54.1798 7.99849 50.1827 8.00059 45.8448C8.00039 45.742 8.0002 45.6393 8 45.5334C8.00039 43.717 8.1269 41.9588 8.5653 40.1897C8.60913 40.0112 8.60913 40.0112 8.65384 39.8291C9.29739 37.3013 10.2816 34.8387 11.8015 32.7074C12.0874 32.2873 12.2214 32.0631 12.224 31.5444C12.1901 31.3861 12.1512 31.2288 12.1089 31.0725C12.0852 30.9739 12.0616 30.8753 12.0373 30.7738C11.9829 30.5505 11.9268 30.3277 11.8694 30.1052C11.0723 27.0092 10.8811 23.7238 11.5442 20.5802C11.5635 20.4879 11.5829 20.3955 11.6029 20.3003C12.0565 18.2081 12.7891 16.2586 13.803 14.3752C13.838 14.3085 13.8731 14.2418 13.9092 14.1731C14.802 12.4803 15.9776 11.0088 17.3042 9.63673C17.4081 9.52586 17.5119 9.41495 17.6157 9.30401C23.1653 3.46703 31.9868 1.64736 39.5538 3.99576Z" fill="black"/>
<path d="M22.4925 15.2636C22.5876 15.2631 22.6828 15.2627 22.7808 15.2622C23.8175 15.2638 24.7168 15.3684 25.6902 15.736C25.7836 15.7712 25.877 15.8063 25.9732 15.8425C28.3575 16.7725 30.2398 18.57 31.3148 20.8927C31.3502 20.9757 31.3855 21.0588 31.422 21.1443C31.4837 21.2887 31.4837 21.2887 31.5466 21.436C31.991 22.6467 31.938 23.8759 31.9373 25.1494C31.9377 25.4878 31.9388 25.8262 31.9419 26.1647C31.9438 26.3737 31.9441 26.5828 31.9427 26.7919C31.9471 27.3322 31.9672 27.7044 32.3255 28.1391C32.6503 28.4018 32.6503 28.4018 33.0526 28.3577C33.5495 28.2271 33.6464 28.1257 33.9067 27.6878C33.9694 27.3255 33.9643 26.9692 33.9597 26.6024C33.9605 26.4967 33.9612 26.3911 33.9621 26.2823C33.9654 25.8324 33.9635 25.3826 33.9621 24.9328C33.96 22.3577 34.5116 20.2756 36.2785 18.3238C36.3504 18.2441 36.4223 18.1644 36.4964 18.0823C37.8071 16.7047 39.6058 15.7363 41.4738 15.3905C41.5603 15.3713 41.6468 15.3522 41.7359 15.3324C43.2992 15.0496 45.0742 15.1685 46.5562 15.729C46.6627 15.7685 46.7691 15.8081 46.8787 15.8488C49.363 16.8801 51.1295 18.7146 52.2435 21.139C53.0188 23.0962 52.8324 25.7661 52.4292 27.8006C52.3998 27.9728 52.3705 28.1449 52.3414 28.3171C51.6694 32.1344 49.8574 35.8488 47.008 38.5185C46.9125 38.6139 46.817 38.7093 46.7186 38.8076C46.6277 38.8984 46.5369 38.9891 46.4433 39.0826C46.3937 39.1374 46.344 39.1923 46.2929 39.2487C43.5965 42.133 39.4227 43.7178 35.6008 44.2723C35.4995 44.2917 35.3981 44.3111 35.2936 44.3311C34.8686 44.3931 34.4516 44.4034 34.0232 44.4041C33.8949 44.4046 33.8949 44.4046 33.764 44.4052C33.5832 44.4058 33.4025 44.406 33.2218 44.406C32.9507 44.4063 32.6796 44.4083 32.4085 44.4105C30.964 44.4159 29.5783 44.269 28.1749 43.9127C28.0799 43.8886 27.9848 43.8645 27.8869 43.8397C24.3612 42.9091 20.7705 40.8806 18.4036 38.0716C18.2722 37.9173 18.1368 37.7662 17.9977 37.6186C14.5609 33.952 13.1244 28.7264 13.2283 23.8148C13.3006 21.6433 14.0889 19.7067 15.5823 18.1048C17.5645 16.29 19.783 15.2512 22.4925 15.2636Z" fill="white"/>
<path d="M13.2383 34.2314C13.7033 34.6311 13.939 35.1083 14.2195 35.6416C14.6939 36.5162 15.2021 37.297 15.8359 38.0672C15.8863 38.1288 15.9366 38.1904 15.9885 38.2538C17.7207 40.3613 19.6608 42.1344 22.0478 43.4826C22.1524 43.5427 22.1524 43.5427 22.2591 43.604C24.2129 44.719 26.2934 45.4713 28.4855 45.9646C28.5621 45.9825 28.6388 46.0004 28.7178 46.0188C30.2408 46.3649 31.7859 46.3834 33.342 46.4159C32.7025 48.0588 31.46 49.4479 30.2586 50.7132C29.9563 51.0306 29.9563 51.0306 29.7111 51.3447C29.3853 51.7511 28.9982 52.0633 28.5984 52.3953C28.5397 52.4447 28.481 52.4941 28.4204 52.545C27.3694 53.425 26.2851 54.1929 25.0972 54.8774C24.9768 54.9476 24.9768 54.9476 24.8539 55.0192C21.9144 56.7131 18.255 57.9592 14.8195 57.8107C14.9655 57.4194 15.136 57.079 15.3617 56.7279C15.4248 56.6292 15.488 56.5304 15.5531 56.4287C15.6208 56.324 15.6885 56.2192 15.7583 56.1113C15.8278 56.0029 15.8974 55.8946 15.969 55.7829C16.523 54.9209 17.0815 54.0617 17.6429 53.2044C17.7297 53.0718 17.7297 53.0718 17.8182 52.9365C17.869 52.859 17.9199 52.7814 17.9723 52.7015C18.2161 52.3167 18.2536 52.0637 18.2077 51.6056C18.0527 51.319 18.0527 51.319 17.756 51.1543C17.2915 51.0769 17.2915 51.0769 16.8524 51.1543C16.3702 51.5613 16.0539 52.0431 15.723 52.5716C15.6144 52.7422 15.5057 52.9127 15.397 53.0833C15.3401 53.1729 15.2833 53.2625 15.2247 53.3548C14.9119 53.8458 14.5937 54.3332 14.2759 54.821C14.2165 54.9125 14.157 55.0041 14.0957 55.0984C13.7015 55.7047 13.3022 56.3075 12.8994 56.9081C12.6024 56.7598 12.5749 56.6231 12.4411 56.3224C12.3975 56.2251 12.3538 56.1277 12.3089 56.0274C12.2639 55.9248 12.2188 55.8222 12.1724 55.7165C12.1278 55.6169 12.0831 55.5174 12.0372 55.4148C11.9078 55.1239 11.7821 54.8317 11.6571 54.5389C11.6202 54.4573 11.5834 54.3758 11.5454 54.2917C11.3165 53.7529 11.3089 53.4134 11.4312 52.8466C11.6041 52.4835 11.6041 52.4835 11.8265 52.1133C11.8662 52.0464 11.9059 51.9795 11.9468 51.9105C12.0749 51.6953 12.2048 51.4812 12.3347 51.2671C12.4239 51.1182 12.5129 50.9691 12.6018 50.82C12.8501 50.4041 13.1006 49.9894 13.3512 49.5748C13.4519 49.407 13.5525 49.2391 13.653 49.0711C14.2476 48.0783 14.2476 48.0783 14.5497 47.5859C14.7537 47.253 14.9561 46.9191 15.1583 46.5851C15.2235 46.4798 15.2887 46.3746 15.3558 46.2661C15.6915 45.7085 15.9412 45.2691 15.9489 44.6108C15.8073 44.2624 15.8073 44.2624 15.4971 44.0467C15.0313 43.962 15.0313 43.962 14.5936 44.0467C14.1303 44.435 13.8495 44.8805 13.57 45.4076C13.482 45.5687 13.3936 45.7297 13.3049 45.8906C13.258 45.9757 13.2111 46.0607 13.1628 46.1484C12.7347 46.9099 12.2734 47.6526 11.8209 48.3998C11.6628 48.6627 11.5073 48.9269 11.3527 49.1919C11.3061 49.2712 11.2595 49.3505 11.2115 49.4322C11.1247 49.5803 11.0384 49.7288 10.953 49.8776C10.855 50.0438 10.7487 50.2049 10.6406 50.3646C10.5661 50.3646 10.4915 50.3646 10.4147 50.3646C9.58444 46.5682 9.93693 42.4243 11.0924 38.7442C11.1172 38.6643 11.1421 38.5844 11.1676 38.5022C11.5961 37.1637 12.245 35.2236 13.2383 34.2314Z" fill="white"/>
<path d="M36.9562 5.4624C37.0342 5.4763 37.1123 5.49021 37.1928 5.50454C40.852 6.18904 44.1376 8.21791 46.7821 10.7649C46.8768 10.8523 46.9714 10.9397 47.0689 11.0298C48.2831 12.183 49.4217 13.6597 50.1704 15.1649C50.1331 15.2393 50.0959 15.3138 50.0575 15.3905C49.9711 15.3332 49.8848 15.2759 49.7958 15.2169C47.1504 13.5188 43.9781 12.8517 40.8613 13.4927C39.0005 13.9485 37.2734 14.816 35.8267 16.0674C35.741 16.1368 35.6552 16.2062 35.5669 16.2777C34.4483 17.2098 33.6995 18.4163 33.0032 19.6777C32.7517 19.3539 32.5369 19.0203 32.3255 18.6693C30.9703 16.5392 29.0446 14.9487 26.6784 14.0367C26.5973 14.0053 26.5161 13.974 26.4325 13.9417C23.6693 12.9192 20.4487 13.075 17.756 14.2623C17.3305 14.4805 16.9196 14.72 16.5092 14.9652C16.2505 15.1197 15.9948 15.2614 15.723 15.3905C16.281 13.8347 17.4321 12.5173 18.5466 11.329C18.6076 11.2637 18.6687 11.1983 18.7316 11.131C23.4131 6.17191 30.3057 4.23861 36.9562 5.4624Z" fill="white"/>
<path d="M50.848 36.9391C50.8853 36.9391 50.9225 36.9391 50.9609 36.9391C50.9121 40.2021 49.9148 43.3361 48.3633 46.1903C48.3081 46.299 48.2529 46.4078 48.1961 46.5199C47.4394 47.9849 46.3896 49.2393 45.3138 50.4774C45.1938 50.6231 45.0738 50.7688 44.9538 50.9146C44.6544 51.2624 44.3202 51.5581 43.97 51.8542C43.8158 51.9859 43.6644 52.1209 43.5165 52.2596C41.64 54.011 39.2722 55.4102 36.8432 56.2312C36.6979 56.286 36.5527 56.3411 36.4077 56.3965C34.0391 57.2872 31.6293 57.6094 29.1066 57.6132C28.9881 57.6136 28.9881 57.6136 28.8672 57.614C27.5853 57.6157 26.3521 57.518 25.0972 57.2466C25.4669 56.9383 25.833 56.688 26.2548 56.4568C28.8183 54.9801 31.2333 52.97 33.0031 50.5902C33.0561 50.5209 33.109 50.4517 33.1635 50.3803C34.1062 49.1449 34.8937 47.8691 35.6102 46.4908C35.7137 46.3031 35.7137 46.3031 35.8267 46.1903C36.021 46.1609 36.2153 46.1321 36.4101 46.106C40.938 45.4771 44.9988 43.2428 48.2503 40.098C48.377 39.9782 48.377 39.9782 48.5062 39.8561C49.357 39.0347 50.0937 38.1168 50.7245 37.1175C50.7856 37.0292 50.7856 37.0292 50.848 36.9391Z" fill="white"/>
<path d="M46.3119 18.5698C47.47 19.5738 48.4211 20.8909 48.6273 22.4471C48.7563 24.4683 48.3703 26.0162 47.0081 27.5751C45.8365 28.7941 44.2311 29.4909 42.5468 29.5282C40.7867 29.5116 39.3867 28.8131 38.1222 27.6293C36.8061 26.2262 36.4453 24.5839 36.4736 22.7313C36.533 21.1361 37.405 19.7869 38.5365 18.7033C40.8439 16.8923 43.9597 16.7638 46.3119 18.5698Z" fill="black"/>
<path d="M27.0998 18.5578C28.2423 19.5471 29.2759 20.8277 29.4091 22.3948C29.4677 24.5184 29.1168 26.1798 27.6253 27.7681C26.3365 29.0048 24.6773 29.5586 22.9166 29.5282C21.2075 29.3837 19.8182 28.5846 18.6596 27.3494C17.4577 25.7998 17.1515 24.0725 17.3043 22.1597C17.5926 20.6242 18.5785 19.2379 19.8512 18.3481C22.1441 16.9335 24.8971 16.8863 27.0998 18.5578Z" fill="black"/>
<path d="M25.8919 20.1655C26.6654 20.7566 27.2252 21.6512 27.3969 22.6138C27.5135 23.7349 27.3557 24.815 26.6798 25.7382C25.9868 26.5512 25.1801 27.2372 24.0837 27.3781C22.7413 27.4741 21.742 27.3174 20.655 26.4662C19.9001 25.7779 19.39 24.8689 19.3103 23.8445C19.2833 22.5728 19.5117 21.5781 20.3405 20.5886C21.9453 19.0181 24.0689 18.9807 25.8919 20.1655Z" fill="white"/>
<path d="M45.0708 20.1563C45.8365 20.7514 46.3967 21.6547 46.5563 22.611C46.6579 23.9066 46.4827 24.9648 45.6527 25.9956C44.7993 26.9087 43.9382 27.3419 42.6906 27.4137C41.4577 27.4442 40.5373 27.0897 39.6174 26.2494C38.7369 25.2966 38.4934 24.2867 38.5065 23.0252C38.5845 21.9781 39.0307 21.0876 39.7797 20.3546C41.4226 19.0736 43.3403 18.9941 45.0708 20.1563Z" fill="white"/>
</svg>
